<?xml version='1.0' encoding='UTF-8' standalone='no'?>
<!-- Created with Fritzing (http://www.fritzing.org/) -->
<svg xmlns:svg='http://www.w3.org/2000/svg' xmlns='http://www.w3.org/2000/svg' version='1.2' baseProfile='tiny' x='0in' y='0in' width='1.73985in' height='0.445432in' viewBox='0 0 125.269 32.0711' >
<g partID='854109300'><g transform='translate(0,28.9475)' ><g transform='matrix(0,-1,1,0,0,0)'  ><g  id="breadboard">
 <polygon  fill="#999999" points="8.112,26.326,8.112,21.615,7.344,21.615,7.344,25.989,0.155,33.178,0.144,33.178,0.144,37.701,0.912,37.701,0.912,33.507,8.09,26.328"/>
 <polygon  fill="#999999" points="9.745,21.615,9.745,28.225,7.358,30.612,7.344,30.615,7.344,37.701,8.112,37.701,8.112,30.944,9.745,29.311,9.745,29.319,10.512,28.555,10.512,21.615"/>
 <polygon  fill="#999999" points="15.317,30.651,12.913,28.245,12.913,21.615,12.145,21.615,12.145,28.556,12.141,28.56,14.543,30.963,14.543,37.701,15.311,37.701,15.311,30.656"/>
 <polygon  fill="#999999" points="22.534,33.231,22.512,33.208,22.512,33.178,22.481,33.178,15.311,26.008,15.311,21.615,14.543,21.615,14.543,26.326,21.745,33.527,21.745,37.701,22.512,37.701,22.512,33.253"/>
 <rect  fill="#1A1A1A" x="2.4" y="13.032" height="11.021" width="17.856"/>
 <g  id="breadboard">
  <circle  r="1.636" fill="none" id="connector0pin" cy="36.677" cx="7.728"/>
  <circle  r="1.635" fill="none" id="connector1pin" cy="36.677" cx="14.928"/>
  <circle  r="1.635" fill="none" id="connector2pin" cy="36.677" cx="22.131"/>
  <circle  r="1.635" fill="none" id="connector3pin" cy="36.678" cx="0.528"/>
 </g>
 <rect  fill="#333333" x="2.4" y="0" height="13.031" width="17.856"/>
 <rect  opacity="0.2" fill="#FFFFFF" x="2.4" y="0" height="0.303" width="17.856"/>
 <rect  opacity="0.2" fill="#FFFFFF" x="2.4" y="12.881" height="0.303" width="17.856"/>
 <g >
  <rect  fill="#1A1A1A" x="4.698" y="1.992" height="3.365" width="13.261"/>
  <rect  fill="#333333" x="4.881" y="2.175" height="3" width="12.895"/>
  <rect  fill="#1A1A1A" x="4.698" y="7.674" height="3.365" width="13.261"/>
  <rect  fill="#333333" x="4.881" y="7.857" height="3" width="12.895"/>
 </g>
 <rect  opacity="0.25" x="2.4" y="23.74" height="0.313" width="17.856"/>
 <g transform="matrix(1, 0, 0, 1, 3.4697, 18.3752)">
  <text  font-size="3.6195" fill="#999999" font-family="'Droid Sans'">QRD1114</text>
 </g>
 <circle  r="0.375" fill="#1A1A1A" cy="9.428" cx="3.558"/>
 <rect  opacity="0.25" x="7.344" y="24.054" height="1.796" width="0.768"/>
 <rect  opacity="0.25" x="9.745" y="24.054" height="1.796" width="0.768"/>
 <rect  opacity="0.25" x="12.141" y="24.054" height="1.796" width="0.768"/>
 <rect  opacity="0.25" x="14.544" y="24.054" height="1.796" width="0.768"/>
</g>
</g></g></g><path stroke='#8c8c8c' stroke-width='2.0952' stroke-linecap='round' stroke-linejoin='round' fill='none' d='M84.6251,10.8025L85.6727,10.8025' />
<path stroke='#8c8c8c' stroke-width='2.0952' stroke-linecap='round' stroke-linejoin='round' fill='none' d='M57.9153,10.8025L56.8677,10.8025' />
<g partID='854109620'><g transform='translate(55.8201,7.17008)' ><g xmlns="http://www.w3.org/2000/svg" id="breadboard">
 <rect xmlns="http://www.w3.org/2000/svg" fill="none" x="0.36" id="connector0pin" y="2.5848" height="0.72" width="0.72"/>
 <rect xmlns="http://www.w3.org/2000/svg" fill="none" x="29.8202" id="connector1pin" y="2.5848" height="0.72" width="0.72"/>
 <line xmlns="http://www.w3.org/2000/svg" y1="3.6324" fill="none" id="connector0leg" stroke-width="2.0952" x2="2.0952" y2="3.6324" stroke-linecap="round" x1="1.0476" stroke="#8C8C8C"/>
 <line xmlns="http://www.w3.org/2000/svg" y1="3.6324" fill="none" id="connector1leg" stroke-width="2.0952" x2="28.805" y2="3.6324" stroke-linecap="round" x1="29.8526" stroke="#8C8C8C"/>
 <path xmlns="http://www.w3.org/2000/svg" fill="none" stroke-width="2.0952" stroke="#8C8C8C" d="M1.0476,3.6324l28.3666,0"/>
 <path xmlns="http://www.w3.org/2000/svg" fill="#D9B477" id="body" d="M10.2478,0.49536c-0.36,-0.1656,-0.9792,-0.2952,-1.3752,-0.2952l-1.9872,0c-0.396,0,-0.72,0.324,-0.72,0.72l0,5.35608c0,0.39672,0.324,0.72,0.72,0.72l1.9872,0c0.396,0,1.0152,-0.13608,1.3752,-0.2952l0.072,-0.03528c0.36,-0.1656,0.9792,-0.2952,1.3752,-0.2952l7.1856,0c0.39672,0,1.01448,0.13608,1.37448,0.2952l0.07272,0.03528c0.36,0.1656,0.97776,0.2952,1.3752,0.2952l1.9872,0c0.39744,0,0.72,-0.32328,0.72,-0.72L24.4102,0.92016c0,-0.396,-0.32256,-0.72,-0.72,-0.72l-1.9872,0c-0.39744,0,-1.0152,0.1368,-1.3752,0.2952l-0.07272,0.036c-0.36,0.1656,-0.97776,0.2952,-1.37448,0.2952l-7.1856,0c-0.396,0,-1.0152,-0.1368,-1.3752,-0.2952L10.2478,0.49536z"/>
 <rect xmlns="http://www.w3.org/2000/svg" fill="#ad9f4e" x="22.019" id="gold_band" y="0.19368" height="6.79536" width="0.70272"/>
 <rect xmlns="http://www.w3.org/2000/svg" fill="#8a3d06" x="16.1726" id="band_rd_multiplier" y="0.82656" height="5.5368" width="1.8504"/>
 <rect xmlns="http://www.w3.org/2000/svg" fill="#c40808" x="12.4726" id="band_2_nd" y="0.82656" height="5.5368" width="1.8504"/>
 <path xmlns="http://www.w3.org/2000/svg" fill="#c40808" id="band_1_st" d="M10.6286,0.63936c-0.1152,-0.036,-0.2232,-0.072,-0.3096,-0.1152l-0.072,-0.036c-0.36,-0.16488,-0.9792,-0.2952,-1.3752,-0.2952l-0.0864,0l0,6.79608l0.0864,0c0.396,0,1.0152,-0.13608,1.3752,-0.2952l0.072,-0.03528c0.0864,-0.04464,0.1944,-0.07992,0.3096,-0.1152L10.6286,0.63936z"/>
 <path xmlns="http://www.w3.org/2000/svg" opacity="0.3" id="Shadow" d="M23.711,4.0896L23.711,4.0896c0,0.37944,-0.13032,0.69912,-0.2952,0.69912l-1.9224,0c-0.38016,0,-0.97776,-0.05616,-1.33272,-0.1224L20.088,4.65048c-0.34488,-0.0648,-0.94896,-0.1224,-1.33344,-0.1224L11.808,4.52808c-0.3816,0,-0.9792,0.0576,-1.332,0.1224l-0.072,0.01512c-0.3456,0.06552,-0.9432,0.1224,-1.332,0.1224l-0.3168,0l-1.0008,0l-0.3096,0c-0.3816,0,-0.6984,0.29376,-0.6984,0.64512l0,0.24696L6.7464,5.8392l0,0.1728c0,0.36,0.3168,0.64512,0.6984,0.64512l1.62,0c0.3816,0,0.9792,-0.1224,1.332,-0.26712l0.072,-0.02808c0.3456,-0.14112,0.9504,-0.26496,1.332,-0.26496l6.94656,0c0.37944,0,0.97704,0.12384,1.33416,0.26568l0.07416,0.02808c0.34488,0.14472,0.94464,0.26712,1.33344,0.26712l2.2248,0c0.38088,0,0.69912,-0.2952,0.69912,-0.64512L24.413,5.472L24.413,4.49928L24.413,2.65536C24.1358,2.76336,23.711,3.06576,23.711,4.0896z"/>
 <rect xmlns="http://www.w3.org/2000/svg" opacity="0.4" x="22.019" id="ShadowExtra" y="3.48336" height="3.15288" width="0.70272"/>
 <path xmlns="http://www.w3.org/2000/svg" opacity="0.25" fill="#FFFFFF" id="ReflexRight" d="M19.751,1.08576c0.22968,0,0.49104,-0.1008,0.6624,-0.1728c0.2016,-0.0792,0.57672,-0.144,0.96624,-0.144l1.46088,0c0.22464,0,0.22464,0.2448,0.22464,0.3744c0,0.1296,-0.01512,0.3816,-0.22464,0.3816l-3.06,0c-0.10728,0,-0.2304,-0.1152,-0.2304,-0.22392C19.5566,1.21536,19.6286,1.08576,19.751,1.08576z"/>
 <circle xmlns="http://www.w3.org/2000/svg" r="0.432" opacity="0.35" fill="#FFFFFF" id="ReflexLeft" cy="1.13616" cx="6.99984"/>
 <rect xmlns="http://www.w3.org/2000/svg" opacity="0.5" fill="#FFFF33" x="22.019" id="Reflex_gold" y="0.42336" height="1.62" width="0.70272"/>
 <rect xmlns="http://www.w3.org/2000/svg" opacity="0.5" fill="#FFFFFF" x="22.019" id="Reflex_extra" y="0.78336" height="0.7488" width="0.70272"/>
</g>
</g></g><g partID='854109350'><g transform='translate(118.069,21.6)' ><g transform='matrix(0,-1,1,0,0,0)'  ><g xmlns="http://www.w3.org/2000/svg" id="breadboard">
<rect xmlns="http://www.w3.org/2000/svg" fill="#404040" height="7.2" width="21.6"/>
<rect xmlns="http://www.w3.org/2000/svg" fill="none" x="2.20843" id="connector0pin" y="2.20843" height="2.78312" width="2.78312"/>
<g xmlns="http://www.w3.org/2000/svg" fill="none" x="2.51834" id="connector0terminal" y="2.47054" height="2.25658" width="2.15829"/>
<rect xmlns="http://www.w3.org/2000/svg" x="2.20843" y="2.20843" height="2.78312" width="2.78312"/>
<polygon xmlns="http://www.w3.org/2000/svg" fill="#2A2A29" points="1.18445,1.18445,2.20843,2.20843,4.99156,2.20843,6.01654,1.18445"/>
<polygon xmlns="http://www.w3.org/2000/svg" fill="#474747" points="6.01654,1.18445,4.99156,2.20843,4.99156,4.99156,6.01654,6.01654"/>
<polygon xmlns="http://www.w3.org/2000/svg" fill="#595959" points="6.01654,6.01654,4.99156,4.99156,2.20843,4.99156,1.18445,6.01654"/>
<polygon xmlns="http://www.w3.org/2000/svg" fill="#373737" points="1.18445,6.01654,2.20843,4.99156,2.20843,2.20843,1.18445,1.18445"/>
<rect xmlns="http://www.w3.org/2000/svg" fill="none" x="9.40846" id="connector1pin" y="2.20843" height="2.78312" width="2.78312"/>
<g xmlns="http://www.w3.org/2000/svg" fill="none" x="9.71834" id="connector1terminal" y="2.47054" height="2.25658" width="2.15829"/>
<rect xmlns="http://www.w3.org/2000/svg" x="9.40846" y="2.20843" height="2.78312" width="2.78312"/>
<polygon xmlns="http://www.w3.org/2000/svg" fill="#2A2A29" points="8.38447,1.18445,9.40846,2.20843,12.1915,2.20843,13.2165,1.18445"/>
<polygon xmlns="http://www.w3.org/2000/svg" fill="#474747" points="13.2165,1.18445,12.1915,2.20843,12.1915,4.99156,13.2165,6.01654"/>
<polygon xmlns="http://www.w3.org/2000/svg" fill="#595959" points="13.2165,6.01654,12.1915,4.99156,9.40846,4.99156,8.38447,6.01654"/>
<polygon xmlns="http://www.w3.org/2000/svg" fill="#373737" points="8.38447,6.01654,9.40846,4.99156,9.40846,2.20843,8.38447,1.18445"/>
<rect xmlns="http://www.w3.org/2000/svg" fill="none" x="16.6085" id="connector2pin" y="2.20843" height="2.78312" width="2.78312"/>
<g xmlns="http://www.w3.org/2000/svg" fill="none" x="16.9183" id="connector2terminal" y="2.47054" height="2.25658" width="2.15829"/>
<rect xmlns="http://www.w3.org/2000/svg" x="16.6085" y="2.20843" height="2.78312" width="2.78312"/>
<polygon xmlns="http://www.w3.org/2000/svg" fill="#2A2A29" points="15.5845,1.18445,16.6085,2.20843,19.3915,2.20843,20.4165,1.18445"/>
<polygon xmlns="http://www.w3.org/2000/svg" fill="#474747" points="20.4165,1.18445,19.3915,2.20843,19.3915,4.99156,20.4165,6.01654"/>
<polygon xmlns="http://www.w3.org/2000/svg" fill="#595959" points="20.4165,6.01654,19.3915,4.99156,16.6085,4.99156,15.5845,6.01654"/>
<polygon xmlns="http://www.w3.org/2000/svg" fill="#373737" points="15.5845,6.01654,16.6085,4.99156,16.6085,2.20843,15.5845,1.18445"/>
</g>
</g></g></g><path stroke='#8c8c8c' stroke-width='2.0952' stroke-linecap='round' stroke-linejoin='round' fill='none' d='M84.6251,18.0025L85.6727,18.0025' />
<path stroke='#8c8c8c' stroke-width='2.0952' stroke-linecap='round' stroke-linejoin='round' fill='none' d='M57.9153,18.0025L56.8677,18.0025' />
<g partID='854109650'><g transform='translate(55.8201,14.3701)' ><g xmlns="http://www.w3.org/2000/svg" id="breadboard">
 <rect xmlns="http://www.w3.org/2000/svg" fill="none" x="0.36" id="connector0pin" y="2.5848" height="0.72" width="0.72"/>
 <rect xmlns="http://www.w3.org/2000/svg" fill="none" x="29.8202" id="connector1pin" y="2.5848" height="0.72" width="0.72"/>
 <line xmlns="http://www.w3.org/2000/svg" y1="3.6324" fill="none" id="connector0leg" stroke-width="2.0952" x2="2.0952" y2="3.6324" stroke-linecap="round" x1="1.0476" stroke="#8C8C8C"/>
 <line xmlns="http://www.w3.org/2000/svg" y1="3.6324" fill="none" id="connector1leg" stroke-width="2.0952" x2="28.805" y2="3.6324" stroke-linecap="round" x1="29.8526" stroke="#8C8C8C"/>
 <path xmlns="http://www.w3.org/2000/svg" fill="none" stroke-width="2.0952" stroke="#8C8C8C" d="M1.0476,3.6324l28.3666,0"/>
 <path xmlns="http://www.w3.org/2000/svg" fill="#D9B477" id="body" d="M10.2478,0.49536c-0.36,-0.1656,-0.9792,-0.2952,-1.3752,-0.2952l-1.9872,0c-0.396,0,-0.72,0.324,-0.72,0.72l0,5.35608c0,0.39672,0.324,0.72,0.72,0.72l1.9872,0c0.396,0,1.0152,-0.13608,1.3752,-0.2952l0.072,-0.03528c0.36,-0.1656,0.9792,-0.2952,1.3752,-0.2952l7.1856,0c0.39672,0,1.01448,0.13608,1.37448,0.2952l0.07272,0.03528c0.36,0.1656,0.97776,0.2952,1.3752,0.2952l1.9872,0c0.39744,0,0.72,-0.32328,0.72,-0.72L24.4102,0.92016c0,-0.396,-0.32256,-0.72,-0.72,-0.72l-1.9872,0c-0.39744,0,-1.0152,0.1368,-1.3752,0.2952l-0.07272,0.036c-0.36,0.1656,-0.97776,0.2952,-1.37448,0.2952l-7.1856,0c-0.396,0,-1.0152,-0.1368,-1.3752,-0.2952L10.2478,0.49536z"/>
 <rect xmlns="http://www.w3.org/2000/svg" fill="#ad9f4e" x="22.019" id="gold_band" y="0.19368" height="6.79536" width="0.70272"/>
 <rect xmlns="http://www.w3.org/2000/svg" fill="#ff4d00" x="16.1726" id="band_rd_multiplier" y="0.82656" height="5.5368" width="1.8504"/>
 <rect xmlns="http://www.w3.org/2000/svg" fill="#000000" x="12.4726" id="band_2_nd" y="0.82656" height="5.5368" width="1.8504"/>
 <path xmlns="http://www.w3.org/2000/svg" fill="#8a3d06" id="band_1_st" d="M10.6286,0.63936c-0.1152,-0.036,-0.2232,-0.072,-0.3096,-0.1152l-0.072,-0.036c-0.36,-0.16488,-0.9792,-0.2952,-1.3752,-0.2952l-0.0864,0l0,6.79608l0.0864,0c0.396,0,1.0152,-0.13608,1.3752,-0.2952l0.072,-0.03528c0.0864,-0.04464,0.1944,-0.07992,0.3096,-0.1152L10.6286,0.63936z"/>
 <path xmlns="http://www.w3.org/2000/svg" opacity="0.3" id="Shadow" d="M23.711,4.0896L23.711,4.0896c0,0.37944,-0.13032,0.69912,-0.2952,0.69912l-1.9224,0c-0.38016,0,-0.97776,-0.05616,-1.33272,-0.1224L20.088,4.65048c-0.34488,-0.0648,-0.94896,-0.1224,-1.33344,-0.1224L11.808,4.52808c-0.3816,0,-0.9792,0.0576,-1.332,0.1224l-0.072,0.01512c-0.3456,0.06552,-0.9432,0.1224,-1.332,0.1224l-0.3168,0l-1.0008,0l-0.3096,0c-0.3816,0,-0.6984,0.29376,-0.6984,0.64512l0,0.24696L6.7464,5.8392l0,0.1728c0,0.36,0.3168,0.64512,0.6984,0.64512l1.62,0c0.3816,0,0.9792,-0.1224,1.332,-0.26712l0.072,-0.02808c0.3456,-0.14112,0.9504,-0.26496,1.332,-0.26496l6.94656,0c0.37944,0,0.97704,0.12384,1.33416,0.26568l0.07416,0.02808c0.34488,0.14472,0.94464,0.26712,1.33344,0.26712l2.2248,0c0.38088,0,0.69912,-0.2952,0.69912,-0.64512L24.413,5.472L24.413,4.49928L24.413,2.65536C24.1358,2.76336,23.711,3.06576,23.711,4.0896z"/>
 <rect xmlns="http://www.w3.org/2000/svg" opacity="0.4" x="22.019" id="ShadowExtra" y="3.48336" height="3.15288" width="0.70272"/>
 <path xmlns="http://www.w3.org/2000/svg" opacity="0.25" fill="#FFFFFF" id="ReflexRight" d="M19.751,1.08576c0.22968,0,0.49104,-0.1008,0.6624,-0.1728c0.2016,-0.0792,0.57672,-0.144,0.96624,-0.144l1.46088,0c0.22464,0,0.22464,0.2448,0.22464,0.3744c0,0.1296,-0.01512,0.3816,-0.22464,0.3816l-3.06,0c-0.10728,0,-0.2304,-0.1152,-0.2304,-0.22392C19.5566,1.21536,19.6286,1.08576,19.751,1.08576z"/>
 <circle xmlns="http://www.w3.org/2000/svg" r="0.432" opacity="0.35" fill="#FFFFFF" id="ReflexLeft" cy="1.13616" cx="6.99984"/>
 <rect xmlns="http://www.w3.org/2000/svg" opacity="0.5" fill="#FFFF33" x="22.019" id="Reflex_gold" y="0.42336" height="1.62" width="0.70272"/>
 <rect xmlns="http://www.w3.org/2000/svg" opacity="0.5" fill="#FFFFFF" x="22.019" id="Reflex_extra" y="0.78336" height="0.7488" width="0.70272"/>
</g>
</g></g><g partID='854110910'><line stroke-linecap='round' stroke='#8c0000' x1='107.254' y1='10.8423' x2='121.668' y2='10.8025' stroke-width='3.2' /><line stroke-linecap='round' stroke='#cc1414' x1='107.254' y1='10.8423' x2='121.668' y2='10.8025' stroke-width='1.6' /></g><g partID='854110920'><line stroke-linecap='round' stroke='#8c0000' x1='85.6727' y1='10.8025' x2='107.254' y2='10.8423' stroke-width='3.2' /><line stroke-linecap='round' stroke='#cc1414' x1='85.6727' y1='10.8025' x2='107.254' y2='10.8423' stroke-width='1.6' /></g><g partID='854111030'><line stroke-linecap='round' stroke='#666666' x1='85.6105' y1='10.8423' x2='85.6727' y2='10.8025' stroke-width='3.2' /><line stroke-linecap='round' stroke='#999999' x1='85.6105' y1='10.8423' x2='85.6727' y2='10.8025' stroke-width='1.6' /></g><g partID='854111040'><line stroke-linecap='round' stroke='#666666' x1='85.6727' y1='18.0025' x2='85.6105' y2='10.8423' stroke-width='3.2' /><line stroke-linecap='round' stroke='#999999' x1='85.6727' y1='18.0025' x2='85.6105' y2='10.8423' stroke-width='1.6' /></g><g partID='854112480'><path stroke-linecap='round' fill='none' stroke-width='3.2' stroke='#000000' d='M92.8249,25.2714C92.8249,25.2714, 92.8249,25.2714 36.678,28.5635' /><path stroke-linecap='round' fill='none' stroke-width='1.6' stroke='#404040' d='M92.8249,25.2714C92.8249,25.2714, 92.8249,25.2714 36.678,28.5635' /></g><g partID='854112410'><path stroke-linecap='round' fill='none' stroke-width='3.2' stroke='#000000' d='M92.8249,18.0569C92.8249,18.0569, 92.8249,18.0569 92.8249,25.2714' /><path stroke-linecap='round' fill='none' stroke-width='1.6' stroke='#404040' d='M92.8249,18.0569C92.8249,18.0569, 92.8249,18.0569 92.8249,25.2714' /></g><g partID='854111700'><path stroke-linecap='round' fill='none' stroke-width='3.2' stroke='#000000' d='M121.668,18.0025C121.668,18.0025, 121.668,18.0025 92.8249,18.0569' /><path stroke-linecap='round' fill='none' stroke-width='1.6' stroke='#404040' d='M121.668,18.0025C121.668,18.0025, 121.668,18.0025 92.8249,18.0569' /></g><g partID='854111990'><line stroke-linecap='round' stroke='#666666' x1='39.1342' y1='17.5329' x2='36.678' y2='28.5635' stroke-width='3.2' /><line stroke-linecap='round' stroke='#999999' x1='39.1342' y1='17.5329' x2='36.678' y2='28.5635' stroke-width='1.6' /></g><g partID='854112000'><line stroke-linecap='round' stroke='#666666' x1='36.677' y1='14.1635' x2='39.1342' y2='17.5329' stroke-width='3.2' /><line stroke-linecap='round' stroke='#999999' x1='36.677' y1='14.1635' x2='39.1342' y2='17.5329' stroke-width='1.6' /></g><g partID='854112090'><line stroke-linecap='round' stroke='#666666' x1='49.6825' y1='10.8423' x2='36.677' y2='6.96046' stroke-width='3.2' /><line stroke-linecap='round' stroke='#999999' x1='49.6825' y1='10.8423' x2='36.677' y2='6.96046' stroke-width='1.6' /></g><g partID='854112100'><line stroke-linecap='round' stroke='#666666' x1='56.8677' y1='10.8025' x2='49.6825' y2='10.8423' stroke-width='3.2' /><line stroke-linecap='round' stroke='#999999' x1='56.8677' y1='10.8025' x2='49.6825' y2='10.8423' stroke-width='1.6' /></g><g partID='854112190'><line stroke-linecap='round' stroke='#666666' x1='56.8969' y1='18.0569' x2='36.677' y2='21.3635' stroke-width='3.2' /><line stroke-linecap='round' stroke='#999999' x1='56.8969' y1='18.0569' x2='36.677' y2='21.3635' stroke-width='1.6' /></g><g partID='854112200'><line stroke-linecap='round' stroke='#666666' x1='56.8677' y1='18.0025' x2='56.8969' y2='18.0569' stroke-width='3.2' /><line stroke-linecap='round' stroke='#999999' x1='56.8677' y1='18.0025' x2='56.8969' y2='18.0569' stroke-width='1.6' /></g><g partID='854112330'><line stroke-linecap='round' stroke='#999999' x1='56.8964' y1='3.62777' x2='56.8677' y2='18.0025' stroke-width='3.2' /><line stroke-linecap='round' stroke='#ffffff' x1='56.8964' y1='3.62777' x2='56.8677' y2='18.0025' stroke-width='1.6' /></g><g partID='854112340'><line stroke-linecap='round' stroke='#999999' x1='121.667' y1='3.60252' x2='56.8964' y2='3.62777' stroke-width='3.2' /><line stroke-linecap='round' stroke='#ffffff' x1='121.667' y1='3.60252' x2='56.8964' y2='3.62777' stroke-width='1.6' /></g></svg>