<?xml version="1.0" encoding="UTF-8" standalone="no"?>
<!-- Created with Fritzing (http://www.fritzing.org/) -->

<svg
   xmlns:dc="http://purl.org/dc/elements/1.1/"
   xmlns:cc="http://creativecommons.org/ns#"
   xmlns:rdf="http://www.w3.org/1999/02/22-rdf-syntax-ns#"
   xmlns:svg="http://www.w3.org/2000/svg"
   xmlns="http://www.w3.org/2000/svg"
   xmlns:sodipodi="http://sodipodi.sourceforge.net/DTD/sodipodi-0.dtd"
   xmlns:inkscape="http://www.inkscape.org/namespaces/inkscape"
   version="1.2"
   x="0in"
   y="0in"
   width="1.03444in"
   height="1.48745in"
   viewBox="0 0 74.48 107.097"
   id="svg6435"
   inkscape:version="0.91 r13725"
   sodipodi:docname="LED_schem.svg"
   inkscape:export-filename="/home/chrisj/Documents/Fritzing/LED_schem.svg.png"
   inkscape:export-xdpi="270"
   inkscape:export-ydpi="270">
  <metadata
     id="metadata6616">
    <rdf:RDF>
      <cc:Work
         rdf:about="">
        <dc:format>image/svg+xml</dc:format>
        <dc:type
           rdf:resource="http://purl.org/dc/dcmitype/StillImage" />
      </cc:Work>
    </rdf:RDF>
  </metadata>
  <defs
     id="defs6614" />
  <sodipodi:namedview
     pagecolor="#ffffff"
     bordercolor="#666666"
     borderopacity="1"
     objecttolerance="10"
     gridtolerance="10"
     guidetolerance="10"
     inkscape:pageopacity="0"
     inkscape:pageshadow="2"
     inkscape:window-width="1325"
     inkscape:window-height="836"
     id="namedview6612"
     showgrid="false"
     inkscape:zoom="3.4554804"
     inkscape:cx="64.099011"
     inkscape:cy="54.172173"
     inkscape:window-x="75"
     inkscape:window-y="34"
     inkscape:window-maximized="0"
     inkscape:current-layer="g6604" />
  <g
     partID="854133620"
     id="g6437">
    <g
       transform="translate(2.7192,0)"
       id="g6439">
      <g
         id="schematic">
        <line
           x2="7.2"
           fill="none"
           stroke-width="0.75"
           stroke-linecap="round"
           y2="13.98"
           stroke="#787878"
           x1="7.2"
           y1="6.78"
           id="connector0pin"
           stroke-miterlimit="10" />
        <g
           fill="none"
           points="6.817,13.567,7.546,13.546,7.546,14.4,6.859,14.359"
           id="connector0terminal" />
        <path
           fill="none"
           stroke-width="0.9"
           stroke-linecap="round"
           stroke="#000000"
           d="M0.45,6.564l13.5,0"
           id="path6444" />
        <g
           transform="matrix(1, 0, 0, 1, 1.4985, 4.9878)"
           id="g6446">
          <text
             font-size="4.4991"
             font-family="'DroidSans'"
             id="label">5V</text>
        </g>
      </g>
    </g>
  </g>
  <g
     partID="854133670"
     id="g6449">
    <g
       transform="translate(2.7,92.6966)"
       id="g6451">
      <g
         id="g6453">
        <path
           fill="none"
           stroke-width="0.75"
           stroke-linecap="round"
           stroke="#787878"
           d="M7.201,7.575l0,-7.2"
           id="path6455" />
        <g
           y="0"
           fill="none"
           width="0.945"
           x="6.728"
           height="0.953"
           id="g6457" />
        <path
           fill="none"
           stroke-width="0.9"
           stroke-linecap="round"
           stroke="#000000"
           d="M0.5,7.711L13.9,7.711"
           id="path4098" />
        <path
           fill="none"
           stroke-width="0.9"
           stroke-linecap="round"
           stroke="#000000"
           d="M2.732,10.456l8.935,0"
           id="path4100" />
        <path
           fill="none"
           stroke-width="0.9"
           stroke-linecap="round"
           stroke="#000000"
           d="M9.431,13.175L4.967,13.175"
           id="path4102" />
      </g>
    </g>
  </g>
  <g
     partID="854137710"
     id="g6462">
    <g
       transform="translate(0,64.157)"
       id="g6464">
      <g
         id="g6466">
        <g
           id="g6468">
          <path
             d="M13.5,14.966L9.9,14.966c-0.193,0,-0.35,-0.156,-0.35,-0.35s0.156,-0.35,0.35,-0.35L13.5,14.266c0.193,0,0.35,0.156,0.35,0.35S13.694,14.966,13.5,14.966z"
             id="path6470" />
        </g>
        <g
           id="g6472">
          <path
             d="M9.9,14.966L6.3,14.966c-0.193,0,-0.35,-0.156,-0.35,-0.35s0.157,-0.35,0.35,-0.35l3.6,0c0.193,0,0.35,0.156,0.35,0.35S10.093,14.966,9.9,14.966z"
             id="path6474" />
        </g>
        <g
           id="g6476">
          <polygon
             fill="#FFFFFF"
             points="9.9,14.616,6.3,7.416,9.9,7.416,13.5,7.416"
             id="polygon6478" />
          <path
             d="M9.9,15.398L5.734,7.066l8.333,0L9.9,15.398zM6.866,7.766L9.9,13.834l3.034,-6.068L6.866,7.766z"
             id="path6480" />
        </g>
        <g
           id="g6482">
          <path
             d="M9.9,14.841c-0.124,0,-0.225,-0.101,-0.225,-0.225l0,-7.2c0,-0.124,0.101,-0.225,0.225,-0.225s0.225,0.101,0.225,0.225l0,7.2C10.124,14.74,10.024,14.841,9.9,14.841z"
             id="path6484" />
        </g>
        <g
           id="g6486">
          <path
             d="M1.8,12.141c-0.058,0,-0.115,-0.021,-0.159,-0.065c-0.088,-0.088,-0.088,-0.23,0,-0.318l2.34,-2.341c0.088,-0.088,0.23,-0.088,0.318,0s0.088,0.23,0,0.318l-2.34,2.341C1.915,12.12,1.858,12.141,1.8,12.141z"
             id="path6488" />
        </g>
        <g
           id="g6490">
          <path
             d="M2.16,15.381c-0.058,0,-0.115,-0.021,-0.159,-0.065c-0.088,-0.088,-0.088,-0.23,0,-0.318l2.34,-2.34c0.088,-0.088,0.23,-0.088,0.318,0s0.088,0.23,0,0.318l-2.34,2.34C2.276,15.359,2.218,15.381,2.16,15.381z"
             id="path6492" />
        </g>
        <g
           id="g6494">
          <path
             fill="#787878"
             d="M9.9,22.166c-0.193,0,-0.35,-0.156,-0.35,-0.35l0,-7.2c0,-0.193,0.156,-0.35,0.35,-0.35s0.35,0.156,0.35,0.35l0,7.2C10.249,22.01,10.093,22.166,9.9,22.166z"
             id="path6496" />
        </g>
        <g
           id="g6498">
          <rect
             y="21.816"
             fill="none"
             width="0.001"
             x="9.9"
             height="0.001"
             id="rect6500" />
        </g>
        <g
           transform="matrix(1, 0, 0, 1, 3.429, 6.4262)"
           id="g6502">
          <g
             id="g6504">
            <g
               transform="rotate(270)"
               id="g6506">
              <g
                 id="g6508">
                <g
                   enable-background="new    "
                   id="g6510">
                  <path
                     fill="#787878"
                     d="M-11.647,5.54l-0.891,0L-12.538,5.388l0.342,-0.372c0.049,-0.053,0.093,-0.101,0.131,-0.145s0.071,-0.086,0.099,-0.128c0.026,-0.042,0.047,-0.084,0.062,-0.125c0.015,-0.043,0.021,-0.088,0.021,-0.138c0,-0.038,-0.005,-0.072,-0.017,-0.102s-0.027,-0.054,-0.047,-0.075c-0.021,-0.02,-0.045,-0.035,-0.073,-0.046s-0.06,-0.016,-0.094,-0.016c-0.062,0,-0.118,0.013,-0.167,0.038c-0.051,0.024,-0.098,0.057,-0.143,0.096l-0.1,-0.116c0.025,-0.023,0.055,-0.046,0.084,-0.065c0.029,-0.021,0.063,-0.039,0.097,-0.054s0.071,-0.026,0.109,-0.036c0.038,-0.008,0.079,-0.013,0.121,-0.013c0.063,0,0.119,0.009,0.169,0.026c0.051,0.018,0.094,0.043,0.129,0.076c0.035,0.032,0.063,0.072,0.082,0.119c0.019,0.048,0.028,0.101,0.028,0.16c0,0.056,-0.009,0.108,-0.026,0.158c-0.017,0.05,-0.041,0.1,-0.07,0.148c-0.031,0.048,-0.066,0.097,-0.109,0.146c-0.041,0.049,-0.087,0.1,-0.136,0.152L-12.32,5.37l0,0.008l0.673,0L-11.647,5.54z"
                     id="path6512" />
                </g>
              </g>
            </g>
          </g>
        </g>
        <g
           id="connector1pin">
          <path
             fill="#787878"
             d="M9.9,7.766c-0.193,0,-0.35,-0.157,-0.35,-0.35l0,-7.2c0,-0.193,0.156,-0.35,0.35,-0.35s0.35,0.157,0.35,0.35l0,7.2C10.249,7.609,10.093,7.766,9.9,7.766z"
             id="path6515" />
        </g>
        <g
           id="connector1terminal">
          <polygon
             fill="none"
             points="9.9,0.216,9.901,0.216,9.901,0.216"
             id="polygon6518" />
        </g>
        <g
           transform="matrix(1, 0, 0, 1, 3.429, 1.3462)"
           id="g6520">
          <g
             id="g6522">
            <g
               transform="rotate(270)"
               id="g6524">
              <g
                 id="g6526">
                <g
                   enable-background="new    "
                   id="g6528">
                  <path
                     fill="#787878"
                     d="M-2.616,5.54l-0.172,0L-2.788,4.648c0,-0.028,0,-0.058,0,-0.09s0.001,-0.063,0.002,-0.095c0.001,-0.032,0.002,-0.063,0.003,-0.092c0.001,-0.028,0.002,-0.054,0.002,-0.076c-0.011,0.012,-0.021,0.021,-0.029,0.03s-0.017,0.017,-0.026,0.024s-0.018,0.016,-0.028,0.025c-0.01,0.008,-0.021,0.019,-0.035,0.03l-0.145,0.118l-0.094,-0.12l0.374,-0.292l0.146,0L-2.618,5.54z"
                     id="path6530" />
                </g>
              </g>
            </g>
          </g>
        </g>
        <g
           id="g6532">
          <path
             d="M0.18,13.536l1.08,-2.521l1.44,1.438L0.18,13.536z"
             id="path6534" />
        </g>
        <g
           id="g6536">
          <path
             d="M0.54,16.776l1.08,-2.521l1.438,1.438L0.54,16.776z"
             id="path6538" />
        </g>
      </g>
    </g>
  </g>
  <g
     partID="854109650"
     id="g6540">
    <g
       transform="translate(6.8044,57.5234)"
       id="g6542">
      <g
         transform="matrix(0,-1,1,0,0,0)"
         id="g6544">
        <g
           id="g6546">
          <line
             x2="8.63003"
             stroke-width="0.432002"
             stroke-linecap="round"
             y2="0.216"
             stroke="#000000"
             class="other"
             x1="7.55002"
             y1="3.096"
             id="line6548" />
          <line
             x2="10.43"
             stroke-width="0.432002"
             stroke-linecap="round"
             y2="5.976"
             stroke="#000000"
             class="other"
             x1="8.63003"
             y1="0.216"
             id="line6550" />
          <line
             x2="12.23"
             stroke-width="0.432002"
             stroke-linecap="round"
             y2="0.216"
             stroke="#000000"
             class="other"
             x1="10.43"
             y1="5.976"
             id="line6552" />
          <line
             x2="14.03"
             stroke-width="0.432002"
             stroke-linecap="round"
             y2="5.976"
             stroke="#000000"
             class="other"
             x1="12.23"
             y1="0.216"
             id="line6554" />
          <line
             x2="15.8301"
             stroke-width="0.432002"
             stroke-linecap="round"
             y2="0.216"
             stroke="#000000"
             class="other"
             x1="14.03"
             y1="5.976"
             id="line6556" />
          <line
             x2="17.6301"
             stroke-width="0.432002"
             stroke-linecap="round"
             y2="5.976"
             stroke="#000000"
             class="other"
             x1="15.8301"
             y1="0.216"
             id="line6558" />
          <line
             x2="19.4301"
             stroke-width="0.432002"
             stroke-linecap="round"
             y2="0.216"
             stroke="#000000"
             class="other"
             x1="17.6301"
             y1="5.976"
             id="line6560" />
          <line
             x2="21.2301"
             stroke-width="0.432002"
             stroke-linecap="round"
             y2="5.976"
             stroke="#000000"
             class="other"
             x1="19.4301"
             y1="0.216"
             id="line6562" />
          <line
             x2="21.9501"
             stroke-width="0.432002"
             stroke-linecap="round"
             y2="3.096"
             stroke="#000000"
             class="other"
             x1="21.2301"
             y1="5.976"
             id="line6564" />
          <line
             connectorname="2"
             x2="21.9501"
             stroke-width="0.700001"
             stroke-linecap="round"
             y2="3.096"
             stroke="#787878"
             class="pin"
             x1="29.1502"
             y1="3.096"
             id="line6566" />
          <g
             y="3.096"
             stroke-width="0"
             fill="none"
             width="0.000283466"
             stroke="none"
             class="terminal"
             x="29.1502"
             height="0.000283465"
             id="g6568" />
          <text
             font-size="2.50001"
             y="2.046"
             stroke-width="0"
             fill="#8c8c8c"
             stroke="none"
             class="text"
             x="25.5501"
             text-anchor="middle"
             font-family="'Droid Sans'"
             id="text6570">2</text>
          <line
             connectorname="1"
             x2="7.55002"
             stroke-width="0.700001"
             stroke-linecap="round"
             y2="3.096"
             stroke="#787878"
             class="pin"
             x1="0.350001"
             y1="3.096"
             id="line6572" />
          <g
             y="3.096"
             stroke-width="0"
             fill="none"
             width="0.000283466"
             stroke="none"
             class="terminal"
             x="0.350001"
             height="0.000283465"
             id="g6574" />
          <text
             font-size="2.50001"
             y="2.046"
             stroke-width="0"
             fill="#8c8c8c"
             stroke="none"
             class="text"
             x="3.95001"
             text-anchor="middle"
             font-family="'Droid Sans'"
             id="text6576">1</text>
        </g>
      </g>
    </g>
  </g>
  <g
     partID="854133700"
     id="g6578">
    <line
       stroke-linecap="round"
       stroke="#404040"
       x1="9.9008"
       y1="28.373"
       x2="9.9008"
       y2="13.973"
       stroke-width="0.699998"
       id="line6580" />
  </g>
  <g
     partID="854137740"
     id="g6582">
    <line
       stroke-linecap="round"
       stroke="#404040"
       x1="9.9008"
       y1="57.1732"
       x2="9.9008"
       y2="64.373"
       stroke-width="0.699998"
       id="line6584" />
  </g>
  <g
     partID="854137810"
     id="g6586">
    <line
       stroke-linecap="round"
       stroke="#404040"
       x1="9.9008"
       y1="93.173"
       x2="9.9008"
       y2="85.9735"
       stroke-width="0.699998"
       id="line6588" />
  </g>
  <g
     partID="854109650"
     id="partLabel">
    <g
       transform="translate(13.9512,49.5701)"
       id="g6591">
      <g
         transform="matrix(0,-1,1,0,0,0)"
         id="g6593">
        <g
           font-size="5"
           font-style="normal"
           font-weight="normal"
           fill="#000000"
           font-family="'DroidSans'"
           id="schematicLabel"
           fill-opacity="1"
           stroke="none">
          <text
             x="0"
             y="3.75"
             id="text6596">R1</text>
          <text
             x="0"
             y="8.75"
             id="text6598">220Ω</text>
        </g>
      </g>
    </g>
  </g>
  <g
     partID="854137710"
     id="g6600">
    <g
       transform="translate(15.28,71.357)"
       id="g6602">
      <g
         font-size="5"
         font-style="normal"
         font-weight="normal"
         fill="#000000"
         font-family="'DroidSans'"
         id="g6604"
         fill-opacity="1"
         stroke="none">
        <text
           x="0"
           y="3.75"
           id="text6606">LED1</text>
        <text
           x="0"
           y="8.75"
           id="text6608">Infrared (940nm)</text>
        <text
           x="0"
           y="13.75"
           id="text6610">1.7V</text>
      </g>
    </g>
  </g>
  <text
     xml:space="preserve"
     style="font-style:normal;font-weight:normal;font-size:4.56020689px;line-height:125%;font-family:Sans;letter-spacing:0px;word-spacing:0px;baseline-shift:baseline;fill:#000000;fill-opacity:1;stroke:none;stroke-width:1px;stroke-linecap:butt;stroke-linejoin:miter;stroke-opacity:1"
     x="16.0597"
     y="58.613773"
     id="text6418"
     sodipodi:linespacing="125%"><tspan
       sodipodi:role="line"
       id="tspan6420"
       x="16.0597"
       y="58.613773">V<tspan
   style="font-size:52.00029612%;baseline-shift:sub"
   id="tspan6628">R1</tspan>=3.3V</tspan><tspan
       sodipodi:role="line"
       x="16.0597"
       y="64.314034"
       id="tspan6422">I=3.3V/220Ω=15mA</tspan></text>
</svg>
