<?xml version="1.0" encoding="UTF-8" standalone="no"?>
<!-- Created with Inkscape (http://www.inkscape.org/) -->

<svg
   xmlns:dc="http://purl.org/dc/elements/1.1/"
   xmlns:cc="http://creativecommons.org/ns#"
   xmlns:rdf="http://www.w3.org/1999/02/22-rdf-syntax-ns#"
   xmlns:svg="http://www.w3.org/2000/svg"
   xmlns="http://www.w3.org/2000/svg"
   xmlns:sodipodi="http://sodipodi.sourceforge.net/DTD/sodipodi-0.dtd"
   xmlns:inkscape="http://www.inkscape.org/namespaces/inkscape"
   width="254.72084mm"
   height="134.08044mm"
   viewBox="0 0 902.55416 475.08819"
   id="svg2"
   version="1.1"
   inkscape:version="0.91 r13725"
   sodipodi:docname="NoHysteresis.svg"
   inkscape:export-filename="/home/chrisj/Desktop/NoHysteresis.svg.png"
   inkscape:export-xdpi="100"
   inkscape:export-ydpi="100">
  <defs
     id="defs4" />
  <sodipodi:namedview
     id="base"
     pagecolor="#ffffff"
     bordercolor="#666666"
     borderopacity="1.0"
     inkscape:pageopacity="0.0"
     inkscape:pageshadow="2"
     inkscape:zoom="1.1817067"
     inkscape:cx="261.5902"
     inkscape:cy="234.48921"
     inkscape:document-units="px"
     inkscape:current-layer="layer1"
     showgrid="false"
     showguides="true"
     inkscape:guide-bbox="true"
     fit-margin-top="0"
     fit-margin-left="0"
     fit-margin-right="0"
     fit-margin-bottom="0"
     inkscape:window-width="1855"
     inkscape:window-height="1176"
     inkscape:window-x="65"
     inkscape:window-y="24"
     inkscape:window-maximized="1">
    <sodipodi:guide
       position="0.49999977,316.89213"
       orientation="1,0"
       id="guide4136" />
    <sodipodi:guide
       position="166.54978,0.49999875"
       orientation="0,1"
       id="guide4138" />
    <sodipodi:guide
       position="110.45188,136.2569"
       orientation="0,1"
       id="guide4140" />
    <sodipodi:guide
       position="114.93971,234.9892"
       orientation="0,1"
       id="guide4142" />
    <sodipodi:guide
       position="129.52516,339.33129"
       orientation="0,1"
       id="guide4144" />
    <sodipodi:guide
       position="366.58106,257.75113"
       orientation="0,1"
       id="guide4152" />
    <sodipodi:guide
       position="368.37619,264.40808"
       orientation="0,1"
       id="guide4154" />
    <sodipodi:guide
       position="367.70302,244.28764"
       orientation="1,0"
       id="guide4156" />
    <sodipodi:guide
       position="369.64775,243.68926"
       orientation="1,0"
       id="guide4158" />
    <sodipodi:guide
       position="375.18274,242.04372"
       orientation="1,0"
       id="guide4160" />
    <sodipodi:guide
       position="377.65105,240.24859"
       orientation="1,0"
       id="guide4162" />
    <sodipodi:guide
       position="389.16982,240.47298"
       orientation="1,0"
       id="guide4164" />
    <sodipodi:guide
       position="404.65284,238.97704"
       orientation="1,0"
       id="guide4166" />
    <sodipodi:guide
       position="411.30979,239.57541"
       orientation="1,0"
       id="guide4168" />
    <sodipodi:guide
       position="423.80092,238.15427"
       orientation="1,0"
       id="guide4170" />
    <sodipodi:guide
       position="434.12293,234.9892"
       orientation="1,0"
       id="guide4172" />
  </sodipodi:namedview>
  <metadata
     id="metadata7">
    <rdf:RDF>
      <cc:Work
         rdf:about="">
        <dc:format>image/svg+xml</dc:format>
        <dc:type
           rdf:resource="http://purl.org/dc/dcmitype/StillImage" />
        <dc:title />
      </cc:Work>
    </rdf:RDF>
  </metadata>
  <g
     inkscape:label="Layer 1"
     inkscape:groupmode="layer"
     id="layer1"
     transform="translate(-30.914822,-266.99166)">
    <path
       style="fill:none;fill-rule:evenodd;stroke:#000000;stroke-width:1px;stroke-linecap:butt;stroke-linejoin:miter;stroke-opacity:1"
       d="m 31.414822,266.99166 0,474.5882 902.054178,0"
       id="path4146"
       inkscape:connector-curvature="0"
       sodipodi:nodetypes="ccc" />
    <path
       style="fill:none;fill-rule:evenodd;stroke:#000000;stroke-width:1px;stroke-linecap:butt;stroke-linejoin:miter;stroke-opacity:1"
       d="m 31.414822,640.60365 c 1.86993,0 3.73986,0 5.60979,0 0.747972,0 1.495943,0 2.243915,0 0.373986,0 0.767164,0.11826 1.121958,0 0.793344,-0.26445 1.423898,-0.95796 2.243916,-1.12196 1.10017,-0.22004 2.277415,0.27211 3.365874,0 1.026209,-0.25655 1.240406,-1.90941 2.243916,-2.24392 1.009762,-0.33659 2.356111,0.33659 3.365874,0 8.126808,-2.70893 -1.768888,0.32347 3.365873,-2.24391 0.669007,-0.33451 1.71502,0.52889 2.243916,0 0.498648,-0.49865 -0.872634,-2.11926 1.121958,-1.12196 0.473059,0.23653 0.648899,0.88543 1.121958,1.12196 0.334503,0.16725 0.85751,-0.26445 1.121958,0 0.264448,0.26444 -0.264448,0.85751 0,1.12195 0.264448,0.26445 0.787455,-0.16725 1.121958,0 0.214766,0.10739 4.380449,4.27307 4.487832,4.48784 0.448783,0.89756 -0.448784,2.4683 0,3.36587 1.240355,2.48071 0.696335,0.34817 2.243916,1.12196 0.473059,0.23653 0.648898,0.88543 1.121957,1.12196 0.334504,0.16725 0.747972,0 1.121958,0 0.373986,0 0.747972,0 1.121958,0 1.121958,0 2.362364,0.50175 3.365874,0 0.334503,-0.16726 0,-0.74798 0,-1.12196 0.373986,-0.37399 0.620203,-0.95471 1.121958,-1.12196 0.709589,-0.23653 1.534327,0.23653 2.243916,0 0.501755,-0.16725 0.68189,-0.82858 1.121958,-1.12196 0.695809,-0.46387 1.450572,-0.85751 2.243916,-1.12196 0.354794,-0.11826 0.85751,0.26445 1.121958,0 0.264448,-0.26444 -0.334504,-0.9547 0,-1.12195 0.669006,-0.33451 1.574909,0.3345 2.243915,0 0.334504,-0.16726 -0.264448,-0.85751 0,-1.12196 0.264448,-0.26445 0.747972,0 1.121958,0 0.373986,0 0.85751,-0.26445 1.121958,0 0.264448,0.26445 -0.264448,0.85751 0,1.12196 0.264448,0.26444 0.787455,-0.16726 1.121958,0 0.473059,0.23653 0.620203,0.9547 1.121958,1.12195 1.064383,0.3548 2.301491,-0.35479 3.365874,0 0.793344,0.26445 1.450572,0.85751 2.243916,1.12196 0.7042,0.23474 3.584616,0 4.487831,0 0.949905,0 3.884665,0.20106 4.487835,0 0.50175,-0.16725 0.68189,-0.82858 1.12196,-1.12196 0.6958,-0.46387 1.5481,-0.65808 2.24391,-1.12195 0.44007,-0.29338 0.68189,-0.82858 1.12196,-1.12196 0.20899,-0.13933 4.41594,-2.17202 4.48783,-2.24392 2.32137,-2.32137 -3.54736,0.0908 1.12196,-2.24391 0.3345,-0.16726 0.74797,0 1.12196,0 2.98962,0 0.2693,0.96494 1.12195,2.24391 0.58676,0.88014 1.49595,1.49595 2.24392,2.24392 0.37399,0.37398 0.6489,0.88543 1.12196,1.12196 0.3345,0.16725 0.78745,-0.16726 1.12196,0 0.47306,0.23653 0.64889,0.88542 1.12195,1.12195 0.33451,0.16726 0.78746,-0.16725 1.12196,0 2.77281,1.38641 -0.38727,1.12196 2.24392,1.12196 0.74797,0 1.49594,0 2.24391,0 0.37399,0 1.12196,-0.37398 1.12196,0 0,0.37399 -1.49594,0 -1.12196,0 0.74798,0 1.57491,0.3345 2.24392,0 0.3345,-0.16725 -0.26445,-0.85751 0,-1.12196 0.30699,-0.30699 3.87918,0.30433 4.48783,0 0.94612,-0.47306 1.36378,-1.65715 2.24392,-2.24391 0.69581,-0.46387 1.57491,-0.62021 2.24391,-1.12196 0.84624,-0.63468 1.33687,-1.69969 2.24392,-2.24392 1.01411,-0.60846 2.30808,-0.59306 3.36587,-1.12195 1.20607,-0.60304 2.15981,-1.64089 3.36588,-2.24392 1.05779,-0.5289 2.30808,-0.59306 3.36587,-1.12196 10.5827,-5.29135 -0.24567,-0.2102 4.48783,-3.36587 0.69581,-0.46387 1.54811,-0.65809 2.24392,-1.12196 0.44007,-0.29338 0.6489,-0.88543 1.12196,-1.12196 0.0587,-0.0294 3.30717,-0.0294 3.36587,0 0.47306,0.23653 0.6489,0.88543 1.12196,1.12196 0.3345,0.16725 0.78745,-0.16725 1.12196,0 0.47305,0.23653 0.64889,0.88543 1.12195,1.12196 0.33451,0.16725 0.78746,-0.16725 1.12196,0 0.47306,0.23653 0.6489,0.88543 1.12196,1.12196 0.66901,0.3345 1.57491,-0.33451 2.24391,0 0.47306,0.23653 0.6489,0.88542 1.12196,1.12195 0.33451,0.16726 1.12196,-0.37398 1.12196,0 0,0.37399 -1.38641,0.26445 -1.12196,0 0.59133,-0.59132 1.65259,-0.53063 2.24392,-1.12195 1.36652,-1.36653 0.52555,-2.50669 2.24391,-3.36588 0.33451,-0.16725 0.85751,0.26445 1.12196,0 0.59133,-0.59132 0.65809,-1.5481 1.12196,-2.24391 0.29338,-0.44007 0.88543,-0.6489 1.12196,-1.12196 0.77379,-1.54758 -1.35875,-1.00356 1.12196,-2.24392 0.3345,-0.16725 0.74797,0 1.12195,0 1.16069,0 1.55072,-0.26445 2.24392,1.12196 0.16725,0.3345 -0.3345,0.95471 0,1.12196 0.89757,0.44878 2.46831,-0.44878 3.36587,0 0.47306,0.23653 0.6489,0.88543 1.12196,1.12196 0.3345,0.16725 0.74797,0 1.12196,0 0.37399,0 0.85751,0.26444 1.12196,0 0,-2.99189 -0.37399,0.37398 1.12196,-1.12196 0.26444,-0.26445 -0.26445,-0.85751 0,-1.12196 0.52889,-0.5289 1.5749,0.3345 2.24391,0 2.10765,-1.05382 1.87339,-4.1173 3.36588,-5.60979 0.59132,-0.59132 1.74216,-0.45295 2.24391,-1.12196 0.70959,-0.94611 0.59306,-2.30808 1.12196,-3.36587 2.56738,-5.13476 -0.46502,4.76093 2.24391,-3.36587 0.23653,-0.70959 -0.52889,-1.71502 0,-2.24392 0.7738,-0.77379 2.09787,0.82986 2.24392,1.12196 0.16725,0.3345 0,0.74797 0,1.12196 0,0.74797 -0.23653,1.53432 0,2.24391 0.16725,0.50176 0.88543,0.6489 1.12196,1.12196 0.16725,0.3345 -0.26445,0.85751 0,1.12196 0.26445,0.26445 0.85751,-0.26445 1.12196,0 1.49594,1.49594 -1.86993,1.12196 1.12195,1.12196 2.24392,0 0.37399,0.37398 1.12196,-1.12196 0.23653,-0.47306 0.88543,-0.6489 1.12196,-1.12196 0.16725,-0.3345 -0.20745,-0.81078 0,-1.12196 0.58676,-0.88013 1.60924,-1.39768 2.24392,-2.24391 0.50175,-0.66901 0.65808,-1.54811 1.12195,-2.24392 0.29338,-0.44007 0.74798,-0.74797 1.12196,-1.12196 0.37399,-0.37398 0.6489,-0.88543 1.12196,-1.12196 0.3345,-0.16725 0.74797,0 1.12196,0 0.37398,0 0.85751,-0.26444 1.12196,0 0.26444,0.26445 -0.16726,0.78746 0,1.12196 0.23653,0.47306 0.74797,0.74797 1.12195,1.12196 0.37399,0.37399 0.6489,0.88543 1.12196,1.12196 0.0587,0.0293 3.30718,0.0293 3.36588,0 4.66932,-2.33466 -1.19942,0.0774 1.12195,-2.24392 0.26445,-0.26445 0.85751,0.26445 1.12196,0 0.26445,-0.26445 -0.26445,-0.85751 0,-1.12196 0.26445,-0.26444 0.85751,0.26445 1.12196,0 0.26445,-0.26444 -0.26445,-1.3864 0,-1.12195 4.3787,4.3787 -0.25971,0.60254 1.12196,3.36587 0.60303,1.20607 1.64088,2.15981 2.24391,3.36587 0.16725,0.33451 0,0.74798 0,1.12196 0,0.74797 -0.23653,1.53433 0,2.24392 0.16725,0.50175 0.88543,0.6489 1.12196,1.12196 0.16725,0.3345 0,0.74797 0,1.12195 0.74797,0.37399 1.65259,0.53064 2.24392,1.12196 0.26444,0.26445 -0.26445,0.85751 0,1.12196 0.11219,0.1122 3.25367,0.1122 3.36587,0 0.26445,-0.26445 0,-0.74797 0,-1.12196 0.74797,-0.37398 1.54811,-0.65808 2.24392,-1.12196 2.57754,-1.71836 -0.4811,-0.64086 2.24391,-3.36587 0.26445,-0.26445 0.85751,0.26445 1.12196,0 0.59132,-0.59132 0.53063,-1.65259 1.12196,-2.24392 0.26445,-0.26444 0.85751,0.26445 1.12196,0 0.26444,-0.26444 -0.37399,-1.12195 0,-1.12195 0.37398,0 -0.26445,0.85751 0,1.12195 0.26444,0.26445 0.85751,-0.26444 1.12195,0 0.26445,0.26445 -0.26444,0.85751 0,1.12196 0.26445,0.26445 0.85751,-0.26445 1.12196,0 0.26445,0.26445 -0.26445,0.85751 0,1.12196 0.26445,0.26445 0.74797,0 1.12196,0 0.37399,0 0.74797,0 1.12196,0 0.74797,0 1.71502,0.5289 2.24391,0 0.83626,-0.83626 0.68274,-2.26781 1.12196,-3.36587 0.31058,-0.77645 0.6202,-1.57491 1.12196,-2.24392 0.63467,-0.84623 1.39768,-1.60924 2.24392,-2.24392 0.669,-0.50175 1.74216,-0.45295 2.24391,-1.12195 0.70959,-0.94612 0.68273,-2.26782 1.12196,-3.36588 0.31058,-0.77644 0.74797,-1.49594 1.12196,-2.24391 0.37398,-0.74798 0.6202,-1.57491 1.12195,-2.24392 0.63468,-0.84623 1.60925,-1.39768 2.24392,-2.24392 0.50176,-0.669 0.53063,-1.65259 1.12196,-2.24391 0.26445,-0.26445 0.85751,-0.26445 1.12196,0 0.25018,0.25019 -0.22242,4.94255 0,5.60979 0.16725,0.50175 0.88542,0.6489 1.12195,1.12196 0.22243,0.44484 -0.22936,3.1365 0,3.36587 0.26445,0.26445 0.85751,-0.26445 1.12196,0 0.26445,0.26445 -0.26445,0.85751 0,1.12196 0.26445,0.26445 0.85751,-0.26445 1.12196,0 0.26445,0.26445 0.37399,1.12196 0,1.12196 -0.37399,0 -0.26445,-0.85751 0,-1.12196 0.59132,-0.59133 1.65259,-0.53064 2.24392,-1.12196 0.26444,-0.26445 -0.11827,-0.76716 0,-1.12196 0.26444,-0.79334 0.6202,-1.57491 1.12195,-2.24391 0.82108,-1.09477 5.09148,-4.57316 5.60979,-5.60979 3.21431,-6.42862 -5.79185,2.73928 3.36588,-3.36588 0.62235,-0.4149 -0.5289,-1.71502 0,-2.24391 0.26445,-0.26445 0.85751,-0.26445 1.12196,0 0.26444,0.26445 -0.16726,0.78745 0,1.12196 0.23652,0.47305 0.64889,0.88542 1.12195,1.12195 0.33451,0.16725 0.76717,0.11827 1.12196,0 0.90537,-0.30179 6.00312,-2.8194 6.73175,-3.36587 0.84623,-0.63468 1.41792,-1.58312 2.24391,-2.24392 7.07669,-5.66134 0.19183,0.93013 5.60979,-4.48783 1.12196,-1.12196 2.24392,-2.24391 3.36588,-3.36587 0.37398,-0.37399 0.6489,-0.88543 1.12196,-1.12196 0.3345,-0.16725 0.78745,0.16725 1.12195,0 0.47306,-0.23653 0.6489,-1.35849 1.12196,-1.12196 2.91914,1.45957 0.39303,1.90803 1.12196,3.36588 0.23653,0.47305 0.74797,0.74797 1.12196,1.12195 0.37398,0.37399 0.6489,0.88543 1.12196,1.12196 0.3345,0.16725 0.78745,-0.16725 1.12195,0 0.47306,0.23653 0.6489,0.88543 1.12196,1.12196 0.3345,0.16725 0.74797,0 1.12196,0 0.37399,0 0.85751,0.26445 1.12196,0 0.49865,-0.49865 -0.87264,-2.11925 1.12196,-1.12196 0.47305,0.23653 0.74797,0.74797 1.12195,1.12196 0.74798,0.74797 1.49595,1.49594 2.24392,2.24392 0.37399,0.37398 0.95471,0.6202 1.12196,1.12195 0.23653,0.70959 -0.23653,1.53433 0,2.24392 0.16725,0.50175 0.74797,0.74797 1.12195,1.12196 0.37399,0.37398 0.74798,0.74797 1.12196,1.12196 0.37399,0.37398 0.6489,0.88542 1.12196,1.12195 0.34145,0.17073 2.86059,0 3.36587,0 1.38167,0 2.07667,0.16725 3.36588,-1.12195 0.26445,-0.26445 -0.11827,-0.76717 0,-1.12196 0.26445,-0.79335 0.53063,-1.65259 1.12196,-2.24392 0.26444,-0.26445 0.85751,0.26445 1.12195,0 1.36653,-1.36652 0.52555,-2.50669 2.24392,-3.36587 0.3345,-0.16725 0.85751,0.26445 1.12196,0 0.26445,-0.26445 -0.26445,-0.85751 0,-1.12196 0.26445,-0.26445 0.74797,0 1.12196,0 1.73633,0 2.11169,0.26445 3.36587,-2.24392 0.3345,-0.669 -0.14669,-1.51047 0,-2.24391 0.23194,-1.15968 0.68273,-2.26782 1.12196,-3.36588 0.31058,-0.77644 0.74797,-1.49594 1.12196,-2.24391 0.74797,-0.74797 1.77085,-1.2978 2.24391,-2.24392 0.3345,-0.669 -0.23653,-1.53432 0,-2.24391 0.16725,-0.50176 0.95471,-0.62021 1.12196,-1.12196 0.002,-0.005 -10e-4,-3.3648 0,-3.36588 0.26445,-0.26444 0.85751,0.26445 1.12196,0 0.26445,-0.26444 -0.11827,-0.76716 0,-1.12195 0.26445,-0.79335 0.91913,-1.43263 1.12196,-2.24392 0.18141,-0.72564 -0.23653,-1.53433 0,-2.24391 0.16725,-0.50176 0.9547,-0.62021 1.12195,-1.12196 0,-5.10747 -0.52889,-0.0642 1.12196,-3.36588 0.16725,-0.3345 -0.37398,-1.12195 0,-1.12195 0.43815,0 1.26358,2.10229 2.24392,1.12195 0.26444,-0.26444 -0.16725,-0.78745 0,-1.12195 2.56738,-5.13477 -0.46502,4.76093 2.24391,-3.36588 0.14553,-0.43658 -0.17411,-3.19176 0,-3.36587 0.26445,-0.26445 0.85751,-0.26445 1.12196,0 0.5289,0.52889 -0.3345,1.57491 0,2.24391 0.23653,0.47306 0.88543,0.6489 1.12196,1.12196 0.77379,1.54758 -1.35875,1.00356 1.12196,2.24392 1.79513,0.89756 0.82277,-0.52358 1.12195,-1.12196 0.23653,-0.47306 0.74798,-0.74797 1.12196,-1.12196 0,-0.74797 -0.23653,-1.53433 0,-2.24391 0.33451,-1.00351 1.77086,-1.2978 2.24392,-2.24392 0.3345,-0.66901 -0.5289,-2.77281 0,-2.24392 4.3787,4.37871 -0.25971,0.60255 1.12196,3.36588 0.23653,0.47306 0.88542,0.6489 1.12195,1.12196 0.16726,0.3345 -0.16725,0.78745 0,1.12195 0.36492,0.72983 1.31537,1.58624 2.24392,1.12196 2.10495,-1.05247 0.47977,-1.43929 1.12196,-3.36587 0.16725,-0.50176 0.88543,-0.6489 1.12196,-1.12196 0.16725,-0.3345 -0.26445,-0.85751 0,-1.12196 0.26444,-0.26445 0.85751,0.26445 1.12195,0 0.26445,-0.26445 -0.26444,-1.3864 0,-1.12196 0.59133,0.59133 0.65809,1.54811 1.12196,2.24392 0.29338,0.44007 0.74797,0.74797 1.12196,1.12196 0.37399,0.37398 0.6489,0.88543 1.12196,1.12196 0.3345,0.16725 0.74797,0 1.12196,0 0.37398,0 0.85751,0.26444 1.12195,0 1.18265,-1.18265 1.24041,-3.14982 2.24392,-4.48784 0.63467,-0.84623 1.69969,-1.33686 2.24392,-2.24391 6.47013,-10.78356 -5.14574,4.61706 3.36587,-6.73175 0.72566,-0.96754 4.29235,-3.9014 4.48783,-4.48783 0.64219,-1.92658 -0.98299,-2.3134 1.12196,-3.36587 0.3345,-0.16726 1.12196,-0.37399 1.12196,0 0,0.37398 -1.49595,0 -1.12196,0 0.74797,0 1.57491,0.3345 2.24391,0 0.33451,-0.16726 -0.11826,-0.76717 0,-1.12196 0.26445,-0.79335 0.74798,-1.49595 1.12196,-2.24392 0.37399,-0.74797 0.65809,-1.54811 1.12196,-2.24391 0.29338,-0.44007 0.95471,-0.62021 1.12196,-1.12196 0.23653,-0.70959 -0.33451,-1.57491 0,-2.24392 0.47306,-0.94612 1.65716,-1.36378 2.24391,-2.24391 0.20745,-0.31118 -0.16725,-0.78746 0,-1.12196 0.23653,-0.47306 0.88543,-0.6489 1.12196,-1.12196 0.16725,-0.3345 -0.37398,-1.12196 0,-1.12196 0.37399,0 0,0.74797 0,1.12196 0,0.74797 0,1.49594 0,2.24392 0,2.63119 -0.26445,-0.5289 1.12196,2.24391 0.16725,0.33451 -0.16725,0.78746 0,1.12196 0.23653,0.47306 0.74797,0.74797 1.12196,1.12196 0.37398,0.37398 0.6202,0.9547 1.12196,1.12196 2.6179,0.87263 2.24391,0.31165 2.24391,-1.12196 0,-1.12196 -0.22003,-2.26571 0,-3.36588 0.16401,-0.82001 0.85751,-1.45057 1.12196,-2.24391 0.69083,-2.0725 -1.712,-0.53192 1.12196,-3.36588 0.26445,-0.26444 0.9547,-0.3345 1.12196,0 0.3345,0.66901 -0.14669,1.51047 0,2.24392 0.23193,1.15968 0.83512,2.21854 1.12195,3.36587 0.66798,2.67191 -1.66089,-0.8084 1.12196,3.36588 0.29338,0.44007 0.95471,0.6202 1.12196,1.12196 0,6.35776 -0.74797,0.37398 1.12196,2.24391 0.26444,0.26445 -0.26445,0.85751 0,1.12196 0.26444,0.26445 0.85751,0.26445 1.12195,0 0.26445,-0.26445 -0.16725,-0.78746 0,-1.12196 0.23653,-0.47306 0.88543,-0.6489 1.12196,-1.12196 0.16725,-0.3345 -0.11826,-0.76716 0,-1.12195 0.26445,-0.79335 0.85751,-1.45058 1.12196,-2.24392 0.23653,-0.70959 -0.3345,-1.57491 0,-2.24392 0.23653,-0.47305 0.74797,-0.74797 1.12196,-1.12195 0.37398,-0.37399 0.59306,-1.12196 1.12196,-1.12196 0.37398,0 -0.26445,0.85751 0,1.12196 0.26444,0.26444 0.85751,0.26444 1.12195,0 0.26445,-0.26445 -0.0907,-0.75914 0,-1.12196 0.28684,-1.14734 0.41237,-2.41976 1.12196,-3.36588 0.50176,-0.669 1.65259,-0.53063 2.24392,-1.12195 0.0719,-0.0719 2.10459,-4.27885 2.24391,-4.48784 0.58676,-0.88013 1.77086,-1.29779 2.24392,-2.24391 0.16725,-0.3345 -0.16725,-0.78746 0,-1.12196 0.23653,-0.47306 0.88543,-0.6489 1.12196,-1.12196 0.16725,-0.3345 -0.26445,-0.85751 0,-1.12195 0.26445,-0.26445 0.85751,0.26444 1.12196,0 0.26444,-0.26445 -0.26445,-0.85751 0,-1.12196 0.26444,-0.26445 0.85751,-0.26445 1.12195,0 0.5289,0.52889 -0.23653,1.53432 0,2.24391 0.26445,0.79335 0.85751,1.45057 1.12196,2.24392 1.1133,3.33988 -2.65665,-2.30204 1.12196,3.36587 1.36859,2.05289 1.43043,0.11194 2.24392,3.36588 0.18141,0.72564 -0.23653,1.53432 0,2.24391 0.3345,1.00351 1.77085,1.2978 2.24391,2.24392 0.16725,0.3345 -0.26445,0.85751 0,1.12196 0.26445,0.26444 0.74797,0 1.12196,0 0.37399,0 0.85751,0.26444 1.12196,0 0.26445,-0.26445 -0.26445,-0.85751 0,-1.12196 0.26445,-0.26445 0.85751,0.26445 1.12196,0 0.26444,-0.26445 -0.26445,-0.85751 0,-1.12196 0.26444,-0.26445 0.9145,0.31118 1.12195,0 0.028,-0.042 2.16196,-6.52685 2.24392,-6.73175 1.91823,-4.79559 0.12179,0.37829 3.36587,-4.48783 0.20745,-0.31117 -0.11826,-0.76716 0,-1.12196 2.70894,-8.12681 -0.32346,1.76889 2.24392,-3.36587 0.16725,-0.3345 -0.26445,-0.85751 0,-1.12196 0.26445,-0.26445 0.85751,-0.26445 1.12196,0 0.26444,0.26445 0,0.74797 0,1.12196 0,3.14755 -0.3548,3.77824 1.12195,6.73175 0.23653,0.47306 0.95471,0.6202 1.12196,1.12195 0.60304,1.80911 0.37077,3.85702 1.12196,5.60979 1.98311,4.62726 2.44452,-0.11891 3.36587,4.48784 0,6.38057 -0.50175,0.73865 1.12196,5.60979 0.11827,0.35479 -0.26445,0.85751 0,1.12195 0.26445,0.26445 0.85751,-0.26444 1.12196,0 0.26445,0.26445 -0.26445,0.85751 0,1.12196 0.26445,0.26445 0.85751,0.26445 1.12196,0 0.26445,-0.26445 -0.16725,-0.78745 0,-1.12196 0.23653,-0.47306 0.74797,-0.74797 1.12196,-1.12195 0,-0.74798 -0.18141,-1.51828 0,-2.24392 0.20282,-0.81129 0.81138,-1.46747 1.12195,-2.24392 0.43923,-1.09806 0.68274,-2.26781 1.12196,-3.36587 0.92852,-2.32129 2.43736,-4.41045 3.36588,-6.73175 0.43922,-1.09806 0.59306,-2.30808 1.12195,-3.36587 0.23653,-0.47306 0.95471,-0.6202 1.12196,-1.12196 0.23653,-0.70959 -0.23653,-1.53433 0,-2.24391 0.16725,-0.50176 0.95471,-0.62021 1.12196,-1.12196 0.23653,-0.70959 -0.3345,-1.57491 0,-2.24392 0.16725,-0.3345 0.85751,0.26445 1.12196,0 0.26445,-0.26445 0,-0.74797 0,-1.12196 0,-0.74797 -0.33451,-1.57491 0,-2.24391 0.16725,-0.33451 0.85751,-0.26445 1.12196,0 0.52889,0.52889 -0.41491,1.62156 0,2.24391 0.88013,1.32021 2.48573,2.04567 3.36587,3.36588 0.46387,0.69581 0.65808,1.5481 1.12196,2.24391 0.68089,1.02134 2.86865,2.37144 3.36587,3.36588 0.16725,0.3345 -0.26445,0.85751 0,1.12195 0.26445,0.26445 0.85751,0.26445 1.12196,0 0.26445,-0.26444 -0.16725,-0.78745 0,-1.12195 0.23653,-0.47306 0.74797,-0.74798 1.12196,-1.12196 0.37398,-1.12196 0.68273,-2.26781 1.12195,-3.36587 2.43117,-6.07793 -0.52702,2.00033 3.36588,-4.48784 0.60847,-1.01411 0.68273,-2.26781 1.12196,-3.36587 0.31057,-0.77645 0.74797,-1.49594 1.12195,-2.24392 0.37399,-0.74797 0.65809,-1.5481 1.12196,-2.24391 0.58676,-0.88014 1.90941,-1.24041 2.24392,-2.24392 0.23653,-0.70959 -0.33451,-1.57491 0,-2.24391 0.16725,-0.33451 0.85751,-0.26445 1.12196,0 0.56097,0.56098 -0.56098,2.80489 0,3.36587 0.26444,0.26445 0.74797,0 1.12195,0 0.37399,0 0.85751,0.26445 1.12196,0 0.21838,-0.21838 -0.20484,-5.20011 0,-5.60979 0.16725,-0.3345 0.85751,0.26445 1.12196,0 0.26445,-0.26445 0,-1.49594 0,-1.12196 0,0.74797 -0.4149,1.62157 0,2.24392 0.46387,0.69581 1.65259,0.53063 2.24392,1.12196 0.59132,0.59132 0.65808,1.5481 1.12195,2.24391 0.37399,0.37399 0.74798,0.74797 1.12196,1.12196 0.37399,0 0.85751,-0.26445 1.12196,0 0.49865,0.49865 -0.87263,2.11925 1.12196,1.12196 2.72059,-1.3603 0.0471,-3.99756 1.12195,-5.60979 0.91638,-1.37457 2.7914,-0.52047 3.36588,-2.24392 0.23653,-0.70959 -0.3345,-1.57491 0,-2.24391 0.16725,-0.33451 0.85751,0.26444 1.12196,0 0.26444,-0.26445 -0.26445,-0.85751 0,-1.12196 0.26444,-0.26445 0.85751,-0.26445 1.12195,0 0.5289,0.52889 -0.4149,1.62156 0,2.24391 0.58676,0.88014 1.65716,1.36378 2.24392,2.24392 0.20745,0.31118 -0.20745,0.81078 0,1.12196 0.58676,0.88013 1.60924,1.39768 2.24392,2.24391 0.50175,0.66901 0.6202,1.57491 1.12195,2.24392 0.63468,0.84623 1.65716,1.36378 2.24392,2.24392 0.20745,0.31117 0,0.74797 0,1.12195 0.74797,0.74798 1.36378,1.65716 2.24392,2.24392 0.31117,0.20745 0.74797,0 1.12195,0 0.37399,0 0.85751,0.26445 1.12196,0 0.26445,-0.26445 -0.16725,-0.78745 0,-1.12196 0.23653,-0.47306 0.82858,-0.68189 1.12196,-1.12196 0.46387,-0.6958 0.74797,-1.49594 1.12196,-2.24391 0.37398,-0.74797 0.91913,-1.43263 1.12196,-2.24392 0.18141,-0.72564 -0.33451,-1.57491 0,-2.24391 0.16725,-0.33451 0.85751,0.26444 1.12195,0 1.36653,-1.36653 0.52555,-2.50669 2.24392,-3.36588 0.3345,-0.16725 0.85751,0.26445 1.12196,0 0.26445,-0.26445 -0.26445,-0.85751 0,-1.12196 0.26998,-0.26997 4.21785,0.26998 4.48783,0 0.59132,-0.59132 0.69171,-1.52683 1.12196,-2.24391 1.38752,-2.31253 3.28176,-4.31961 4.48783,-6.73175 0.52889,-1.05779 0.59306,-2.30808 1.12196,-3.36587 0.60303,-1.20607 1.49594,-2.24392 2.24391,-3.36588 0.74797,-1.12195 1.40156,-2.31293 2.24392,-3.36587 0.6608,-0.826 1.65716,-1.36378 2.24391,-2.24392 1.16069,-1.74102 -1.9059,-0.72998 1.12196,-2.24391 0.33451,-0.16725 0.85751,-0.26445 1.12196,0 0.26445,0.26445 -0.16725,0.78745 0,1.12196 0.23653,0.47306 0.88543,0.6489 1.12196,1.12195 1.38166,2.76333 -3.25675,-1.01283 1.12196,3.36588 0.26444,0.26445 0.85751,-0.26445 1.12195,0 2.32137,2.32137 -3.54736,-0.0908 1.12196,2.24391 0.3345,0.16726 0.85751,0.26445 1.12196,0 0.26445,-0.26444 -0.11827,-0.76716 0,-1.12195 0.26445,-0.79335 0.74797,-1.49595 1.12196,-2.24392 0.74797,-1.49594 1.31617,-3.09621 2.24391,-4.48783 0.29338,-0.44007 0.88543,-0.6489 1.12196,-1.12196 0.16725,-0.3345 -0.37398,-1.12196 0,-1.12196 0.5289,0 0.88543,0.6489 1.12196,1.12196 0.16725,0.3345 -0.0907,0.75914 0,1.12196 0.28683,1.14733 0.68273,2.26781 1.12196,3.36587 1.55185,3.87964 0.58523,0.78031 3.36587,4.48783 2.12547,-0.12777 0.74797,2.61791 1.12196,3.36588 2.33466,4.66932 -0.0775,-1.19942 2.24391,1.12196 0.26445,0.26444 -0.26444,0.85751 0,1.12195 0.26445,0.26445 0.85751,0.26445 1.12196,0 0.10926,-0.10925 -0.12492,-3.86321 0,-4.48783 0.26065,-1.30325 1.38909,-4.32755 2.24392,-5.60979 1.71159,-2.56738 0.88811,0.70155 2.24391,-3.36587 0.11827,-0.3548 -0.16725,-0.78746 0,-1.12196 0.47306,-0.94612 1.77086,-1.2978 2.24392,-2.24392 0.16725,-0.3345 -0.26445,-1.3864 0,-1.12195 0.59132,0.59132 0.74797,1.49594 1.12196,2.24391 0.37398,0.74797 0.85751,1.45057 1.12196,2.24392 0.46427,1.39282 -0.92103,1.22242 1.12195,2.24391 0.33451,0.16726 0.74798,0 1.12196,0 0.37399,0 0.85751,0.26445 1.12196,0 0.26445,-0.26444 0,-0.74797 0,-1.12195 0,-0.74798 -0.3345,-1.57491 0,-2.24392 0.47306,-0.94612 1.69969,-1.33687 2.24392,-2.24392 0.60846,-1.01411 0.59306,-2.30808 1.12195,-3.36587 2.63411,-5.26822 1.68658,-1.41154 3.36588,-5.60979 0.43922,-1.09806 0.51349,-2.35176 1.12196,-3.36587 2.91458,-4.85765 2.09454,0.74687 3.36587,-5.60979 1.70249,-8.51246 -1.73274,2.34352 1.12196,-3.36588 0.3345,-0.669 -0.74798,-2.24391 0,-2.24391 0.37398,0 -0.26445,0.85751 0,1.12196 2.32137,2.32137 -0.0907,-3.54737 2.24391,1.12195 0.22243,0.44485 -0.22937,3.13651 0,3.36588 0.26445,0.26445 0.85751,0.26445 1.12196,0 0.5289,-0.5289 -0.23653,-1.53433 0,-2.24392 0.26445,-0.79334 0.85751,-1.45057 1.12196,-2.24391 0.11826,-0.3548 -0.16725,-0.78746 0,-1.12196 0.23653,-0.47306 0.88543,-0.6489 1.12196,-1.12196 0.16725,-0.3345 -0.26445,-0.85751 0,-1.12196 0.26444,-0.26445 0.9547,-0.3345 1.12195,0 0.66901,1.33801 -0.669,3.14982 0,4.48783 0.47306,0.94612 1.77086,1.2978 2.24392,2.24392 0.3345,0.66901 -0.18141,1.51828 0,2.24392 0.76729,3.06917 1.57763,1.80546 3.36587,4.48783 0.20745,0.31117 -0.26444,0.85751 0,1.12196 0.26445,0.26444 0.74798,0 1.12196,0 0.37399,0 0.85751,0.26444 1.12196,0 0.26445,-0.26445 -0.11826,-0.76717 0,-1.12196 0.5289,-1.58669 1.71502,-2.90115 2.24392,-4.48783 0.23653,-0.70959 -0.33451,-1.57491 0,-2.24392 0.23653,-0.47306 0.88542,-0.6489 1.12195,-1.12196 0.10294,-0.20586 -0.0823,-3.36587 0,-3.36587 0.37399,0 -0.16725,0.78745 0,1.12196 0.23653,0.47305 0.88543,0.64889 1.12196,1.12195 0.16725,0.33451 -0.26445,0.85751 0,1.12196 0.26445,0.26445 0.85751,-0.26445 1.12196,0 0.26445,0.26445 0.37399,1.12196 0,1.12196 -0.37399,0 -0.11827,-0.76716 0,-1.12196 0.79751,-2.39252 1.53941,-2.66137 3.36587,-4.48783 0.37399,-0.37399 0.82858,-0.68189 1.12196,-1.12196 0.92775,-1.39162 1.31617,-3.09621 2.24392,-4.48783 0.29338,-0.44007 0.88543,-0.6489 1.12196,-1.12196 0.16725,-0.3345 -0.16726,-0.78745 0,-1.12196 1.86053,-3.72106 0.78669,0 1.12195,0 0.5289,0 0.95471,-0.6202 1.12196,-1.12195 0.20617,-0.61851 0,-5.77961 0,-6.73175 0,-0.37399 -0.16725,-0.78746 0,-1.12196 0.23653,-0.47306 0.88543,-0.6489 1.12196,-1.12196 0.16725,-0.3345 -0.37399,-1.12195 0,-1.12195 0.0823,0 -0.10293,3.16001 0,3.36587 0.23653,0.47306 0.95471,0.6202 1.12196,1.12196 0.23653,0.70959 0,1.49594 0,2.24391 0,0.37399 -0.16725,0.78746 0,1.12196 0.23653,0.47306 0.88543,0.6489 1.12195,1.12196 0.16726,0.3345 -0.11826,0.76716 0,1.12196 0.26445,0.79334 0.85751,1.45057 1.12196,2.24391 0.11827,0.3548 -0.26445,0.85751 0,1.12196 0.26445,0.26445 0.74797,0 1.12196,0 0.37399,0 0.85751,0.26445 1.12196,0 0.26445,-0.26445 -0.11827,-0.76716 0,-1.12196 0.26445,-0.79334 0.85751,-1.45057 1.12196,-2.24391 0.11826,-0.3548 -0.26445,-0.85751 0,-1.12196 0.59132,-0.59133 1.65259,-0.53064 2.24391,-1.12196 0.5289,-0.5289 -0.52889,-1.71502 0,-2.24392 0.26445,-0.26444 0.85751,0.26445 1.12196,0 0.5289,-0.52889 -0.5289,-1.71501 0,-2.24391 0.26445,-0.26445 0.74797,0 1.12196,0 0.37398,0 0.85751,-0.26445 1.12196,0 0.2578,0.2578 -0.62904,2.82758 1.12195,2.24391 3.84195,-1.28064 1.39042,-3.04929 2.24392,-5.60978 0.42641,-1.27923 1.71274,-2.12648 2.24392,-3.36588 0.60741,-1.41731 0.51454,-3.07052 1.12195,-4.48783 6.52485,-15.22464 -1.36175,7.45113 3.36588,-6.73175 0.37398,-1.12196 0.68273,-2.26781 1.12196,-3.36587 0.62115,-1.55289 1.71502,-2.90115 2.24391,-4.48783 0.29262,-0.87786 -0.46961,-2.24392 0,-2.24392 1.36087,0 3.12247,6.12325 3.36587,6.73175 0.93174,2.32934 2.37762,4.42582 3.36588,6.73175 0.46587,1.08702 0.79706,2.22873 1.12196,3.36587 0.42361,1.48265 0.51454,3.07052 1.12195,4.48783 0.53118,1.2394 1.64089,2.15981 2.24392,3.36588 1.05779,2.11558 1.02698,4.70352 2.24392,6.73174 0.54423,0.90705 1.65715,1.36378 2.24391,2.24392 0.20745,0.31117 0,0.74797 0,1.12196 0,0.74797 -0.23653,1.53432 0,2.24391 0.16725,0.50176 0.6489,0.88543 1.12196,1.12196 0.0587,0.0293 3.30718,0.0293 3.36587,0 0.47306,-0.23653 0.88543,-0.6489 1.12196,-1.12196 0.16725,-0.3345 -0.16725,-0.78745 0,-1.12196 0.23653,-0.47305 0.88543,-0.64889 1.12196,-1.12195 0.16725,-0.33451 -0.20745,-0.81079 0,-1.12196 0.58676,-0.88014 1.39768,-1.60924 2.24392,-2.24392 0.669,-0.50175 1.78004,-0.42615 2.24391,-1.12196 0.4149,-0.62235 -0.23653,-1.53432 0,-2.24391 1.16733,-3.50199 0.74797,0.37398 2.24392,-1.12196 0.26445,-0.26445 -0.26445,-0.85751 0,-1.12196 0.26445,-0.26444 0.85751,-0.26444 1.12196,0 0.26444,0.26445 -0.16726,0.78746 0,1.12196 0.23652,0.47306 0.82857,0.68189 1.12195,1.12196 0.46388,0.69581 0.74798,1.49594 1.12196,2.24391 1.16523,2.33046 1.56068,3.3533 3.36587,5.60979 0.6608,0.826 1.65716,1.36378 2.24392,2.24392 0.92775,1.39162 1.58508,2.95055 2.24392,4.48783 0.46586,1.08703 0.41237,2.41976 1.12195,3.36588 0.50176,0.669 1.6526,0.53063 2.24392,1.12195 0.68911,0.68912 0.55407,3.08884 2.24392,2.24392 1.28623,-0.64312 1.56065,-2.34098 2.24391,-3.36587 1.03725,-1.55588 2.43813,-2.86428 3.36588,-4.48784 0.58675,-1.02682 0.65609,-2.27885 1.12195,-3.36587 0.65884,-1.53728 1.58508,-2.95055 2.24392,-4.48783 0.46587,-1.08703 0.68273,-2.26781 1.12196,-3.36588 0.62115,-1.55289 1.71502,-2.90114 2.24391,-4.48783 0.69084,-2.07249 -1.712,-0.53191 1.12196,-3.36587 0.26445,-0.26445 -0.16725,0.78745 0,1.12196 5.26068,10.52136 0.80066,-1.60649 2.24392,5.60979 0.23193,1.15968 0.74797,2.24391 1.12196,3.36587 0.37398,1.12196 0.74797,2.24392 1.12195,3.36587 0.60819,1.82456 1.14335,3.95894 2.24392,5.60979 0.45614,0.68421 1.25086,1.61849 2.24391,1.12196 2.10496,-1.05247 0.47977,-1.43929 1.12196,-3.36587 0.5289,-1.58669 1.65666,-2.92181 2.24392,-4.48783 0.54143,-1.44381 0.58053,-3.04403 1.12196,-4.48784 1.17452,-3.13205 3.31331,-5.84361 4.48783,-8.97566 0.54142,-1.4438 0.51454,-3.07052 1.12196,-4.48783 0.72392,-1.68915 2.87122,-3.63119 3.36587,-5.60979 0.18141,-0.72564 0,-1.49594 0,-2.24392 0.37399,-0.74797 0.85751,-1.45057 1.12196,-2.24391 0.23653,-0.70959 -0.5289,-1.71502 0,-2.24392 0.26445,-0.26445 0.85751,0.26445 1.12196,0 0.26444,-0.26445 -0.26445,-0.85751 0,-1.12196 0.26444,-0.26444 0.85751,-0.26444 1.12195,0 0.34438,0.34438 -0.20819,3.65505 0,4.48784 0.20283,0.81129 0.65809,1.5481 1.12196,2.24391 0.29338,0.44007 0.99368,0.60886 1.12196,1.12196 0.27211,1.08846 -0.22003,2.2657 0,3.36587 0.164,0.82002 0.91914,1.43263 1.12196,2.24392 0.18141,0.72564 -0.18141,1.51828 0,2.24392 0.20282,0.81129 0.74797,1.49594 1.12196,2.24391 0.0906,0.18121 1.9174,4.81434 3.36587,3.36588 0.26445,-0.26445 -0.0907,-0.75914 0,-1.12196 1.24035,-4.96142 0.69633,-1.74084 2.24391,-5.60979 0.43923,-1.09806 0.68274,-2.26782 1.12196,-3.36588 2.43117,-6.07792 -0.52702,2.00034 3.36588,-4.48783 0.60846,-1.01411 0.59306,-2.30808 1.12195,-3.36587 0.23653,-0.47306 0.95471,-0.6202 1.12196,-1.12196 0.23653,-0.70959 0,-1.49594 0,-2.24392 0.37399,-0.74797 0.85751,-1.45057 1.12196,-2.24391 0.11827,-0.3548 -0.26445,-0.85751 0,-1.12196 0.26445,-0.26445 0.85751,0.26445 1.12196,0 0.26445,-0.26445 -0.26445,-0.85751 0,-1.12196 0.26445,-0.26445 0.85751,0.26445 1.12196,0 0.26444,-0.26445 -0.16726,-0.78745 0,-1.12196 1.24035,-2.48071 0.69633,-0.34816 2.24391,-1.12195 1.06243,-0.53122 1.78323,-3.03524 3.36588,-2.24392 2.40768,1.20384 0.0516,1.22523 1.12195,3.36587 1.12196,2.24392 2.24392,1.68294 3.36588,3.36588 1.71894,2.57842 0.0935,2.24391 2.24391,2.24391 0.37399,0 0.78746,0.16726 1.12196,0 1.37266,-0.68632 1.424,-2.27265 2.24392,-3.36587 2.03173,-2.70898 2.84971,-2.27977 5.60979,-4.48783 0.82599,-0.6608 1.41792,-1.58312 2.24391,-2.24392 1.05295,-0.84235 2.24392,-1.49594 3.36588,-2.24391 1.12195,-0.74797 2.11389,-1.74313 3.36587,-2.24392 0.69447,-0.27779 1.54944,0.27779 2.24392,0 1.25198,-0.50079 2.1598,-1.64088 3.36587,-2.24391 0.3345,-0.16726 0.74797,0 1.12196,0 1.12196,0 2.36236,-0.50176 3.36587,0 0.3345,0.16725 -0.3345,0.9547 0,1.12195 0.66901,0.33451 1.57491,-0.3345 2.24392,0 0.94612,0.47306 1.33686,1.69969 2.24391,2.24392 1.01412,0.60847 2.27885,0.65609 3.36588,1.12196 1.53728,0.65883 2.9218,1.65665 4.48783,2.24391 2.32573,2.39255 5.31097,0.39547 7.8537,1.12196 1.60817,0.45948 2.87967,1.78444 4.48784,2.24392 1.07879,0.30822 2.24391,0 3.36587,0 1.12196,0 2.28708,0.30822 3.36587,0 1.60817,-0.45948 2.92181,-1.65666 4.48784,-2.24392 1.4438,-0.54143 3.07052,-0.51454 4.48783,-1.12196 1.2394,-0.53117 2.19511,-1.57491 3.36587,-2.24391 1.45215,-0.8298 3.09621,-1.31617 4.48783,-2.24392 0.88014,-0.58676 1.41792,-1.58312 2.24392,-2.24391 1.05294,-0.84236 2.31293,-1.40157 3.36587,-2.24392 0.826,-0.6608 1.49595,-1.49594 2.24392,-2.24392 0.37398,-0.37398 0.6489,-0.88542 1.12196,-1.12195 1.14223,-0.57112 5.33949,0.98681 5.60979,1.12195 1.20606,0.60304 2.06933,1.87348 3.36587,2.24392 1.43839,0.41097 3.04945,-0.41097 4.48783,0 1.29654,0.37044 2.05771,1.91687 3.36587,2.24392 1.8141,0.45352 3.7543,-0.23194 5.60979,0 1.17352,0.14669 2.19932,0.92753 3.36588,1.12195 1.51977,0.2533 5.99587,0 7.8537,0 1.12196,0 2.24392,0 3.36588,0 0.37398,0 0.85751,-0.26444 1.12196,0 0.26444,0.26445 -0.26445,0.85751 0,1.12196 0.26444,0.26445 0.85751,-0.26445 1.12195,0 0.26445,0.26445 -0.26444,0.85751 0,1.12196 0.26445,0.26445 0.74798,0 1.12196,0 1.49595,0 2.99189,0 4.48783,0 0.37399,0 0.74797,0 1.12196,0 0.37399,0 1.12196,-0.37399 1.12196,0 0,0.37399 -1.38641,-0.26445 -1.12196,0 0.59132,0.59132 1.49594,0.74797 2.24392,1.12196"
       id="path4150"
       inkscape:connector-curvature="0" />
    <g
       id="g4194"
       transform="matrix(1,0,0,6.466174,0,-2787.9)">
      <rect
         y="477.67178"
         x="36.061329"
         height="6.65695"
         width="362.55615"
         id="rect4174"
         style="opacity:1;fill:#e6e6e6;fill-opacity:1;stroke:#000000;stroke-width:0.11797708;stroke-miterlimit:4;stroke-dasharray:none;stroke-dashoffset:0;stroke-opacity:1" />
      <rect
         y="477.67178"
         x="398.61783"
         height="6.65695"
         width="1.9447299"
         id="rect4176"
         style="opacity:1;fill:#333333;fill-opacity:1;stroke:#000000;stroke-width:0.11797706;stroke-miterlimit:4;stroke-dasharray:none;stroke-dashoffset:0;stroke-opacity:1" />
      <rect
         y="477.67178"
         x="400.56256"
         height="6.65695"
         width="5.5349898"
         id="rect4178"
         style="opacity:1;fill:#e6e6e6;fill-opacity:1;stroke:#000000;stroke-width:0.11797706;stroke-miterlimit:4;stroke-dasharray:none;stroke-dashoffset:0;stroke-opacity:1" />
      <rect
         y="477.67178"
         x="406.09756"
         height="6.65695"
         width="2.4683099"
         id="rect4180"
         style="opacity:1;fill:#333333;fill-opacity:1;stroke:#000000;stroke-width:0.11797706;stroke-miterlimit:4;stroke-dasharray:none;stroke-dashoffset:0;stroke-opacity:1" />
      <rect
         y="477.67178"
         x="408.56586"
         height="6.65695"
         width="11.518769"
         id="rect4182"
         style="opacity:1;fill:#e6e6e6;fill-opacity:1;stroke:#000000;stroke-width:0.11797706;stroke-miterlimit:4;stroke-dasharray:none;stroke-dashoffset:0;stroke-opacity:1" />
      <rect
         y="477.67178"
         x="420.08463"
         height="6.65695"
         width="15.48302"
         id="rect4184"
         style="opacity:1;fill:#333333;fill-opacity:1;stroke:#000000;stroke-width:0.11797706;stroke-miterlimit:4;stroke-dasharray:none;stroke-dashoffset:0;stroke-opacity:1" />
      <rect
         y="477.67178"
         x="435.56766"
         height="6.65695"
         width="6.65695"
         id="rect4186"
         style="opacity:1;fill:#e6e6e6;fill-opacity:1;stroke:#000000;stroke-width:0.11797706;stroke-miterlimit:4;stroke-dasharray:none;stroke-dashoffset:0;stroke-opacity:1" />
      <rect
         y="477.67178"
         x="442.22461"
         height="6.65695"
         width="12.49113"
         id="rect4188"
         style="opacity:1;fill:#333333;fill-opacity:1;stroke:#000000;stroke-width:0.11797706;stroke-miterlimit:4;stroke-dasharray:none;stroke-dashoffset:0;stroke-opacity:1" />
      <rect
         y="477.67178"
         x="454.71573"
         height="6.65695"
         width="10.32201"
         id="rect4190"
         style="opacity:1;fill:#e6e6e6;fill-opacity:1;stroke:#000000;stroke-width:0.11797706;stroke-miterlimit:4;stroke-dasharray:none;stroke-dashoffset:0;stroke-opacity:1" />
      <rect
         y="477.67178"
         x="465.0372"
         height="6.65695"
         width="458.19376"
         id="rect4192"
         style="opacity:1;fill:#333333;fill-opacity:1;stroke:#000000;stroke-width:0.11797705;stroke-miterlimit:4;stroke-dasharray:none;stroke-dashoffset:0;stroke-opacity:1" />
    </g>
    <text
       xml:space="preserve"
       style="font-style:normal;font-weight:normal;font-size:12.5px;line-height:125%;font-family:Sans;letter-spacing:0px;word-spacing:0px;fill:#000000;fill-opacity:1;stroke:none;stroke-width:1px;stroke-linecap:butt;stroke-linejoin:miter;stroke-opacity:1"
       x="49.531963"
       y="369.73706"
       id="text4206"
       sodipodi:linespacing="125%"><tspan
         sodipodi:role="line"
         id="tspan4208"
         x="49.531963"
         y="369.73706">Readout with no hysteresis</tspan></text>
    <path
       style="fill:none;fill-rule:evenodd;stroke:#ff0000;stroke-width:3;stroke-linecap:butt;stroke-linejoin:miter;stroke-opacity:1;stroke-miterlimit:4;stroke-dasharray:none"
       d="m 346.55998,507.09065 180.24776,0"
       id="path4210"
       inkscape:connector-curvature="0" />
    <text
       xml:space="preserve"
       style="font-style:normal;font-weight:normal;font-size:12.5px;line-height:125%;font-family:Sans;letter-spacing:0px;word-spacing:0px;fill:#000000;fill-opacity:1;stroke:none;stroke-width:1px;stroke-linecap:butt;stroke-linejoin:miter;stroke-opacity:1"
       x="465.03775"
       y="528.82898"
       id="text4212"
       sodipodi:linespacing="125%"><tspan
         sodipodi:role="line"
         id="tspan4214"
         x="465.03775"
         y="528.82898">Midpoint threshold</tspan></text>
  </g>
</svg>
